:SAMPLES-PER-SECOND 30
:FULLY-SPECIFIED
:DEGREES
186
root  17.14082252 39.59311237 -10.26851098 -6.597080231 -71.2664032 9.841520309
lfemur  -25.04100227 6.861209869 -4.64550066
ltibia  -1.491570742e-006 -8.364404493e-007 63.29679871
lfoot  5.521815751e-007 -3.618866682 -8.4249897
ltoes  -4.250644065 -19.5611806 -102.515957
rfemur  -19.67469788 10.53380013 1.842939138
rtibia  -8.727266732e-007 2.533748784e-007 58.57889557
rfoot  -2.316020982e-006 -9.776329041 -5.742460251
rtoes  5.373923086 19.29304026 -105.8922705
lowerback  11.89249992 2.355450153 -0.4885340631
upperback  3.685339928 2.939219952 -0.3365800083
thorax  -2.812000036 1.414420009 -0.4857169986
rclavicle  0 -9.442270133e-015 7.951389973e-016
rhumerus  6.05918026 22.08279991 -76.75039673
rradius  -7.782816926e-012 0.001642658608 139.4839935
rwrist  0.002739921212 0.003270594636 -13.90759945
rthumb  -92.93752616 -24.25625642 -97.11982154
rhand  -7.920061211e-032 -33.2840004 9.303460121
rfingers  -90 -7.125020027 -90
lclavicle  0 -9.442270133e-015 7.951389973e-016
lhumerus  6.716770172 1.206369996 63.77190018
lradius  1.032090038e-011 0.005718162749 146.1699982
lwrist  1.816137865e-011 1.409039812e-011 5.135069847
lthumb  89.89689403 5.08795885 91.16245106
lhand  -1.496451383e-031 -27.76390076 20.11240005
lfingers  90 7.125020027 -90
lowerneck  -5.561329842 9.989430428 -4.014269829
upperneck  8.39029026 13.98830128 -3.111399889
head  3.65079999 6.634399891 0.3242140114
187
root  17.19684451 39.6586681 -10.24702252 -9.698221207 -71.98220062 12.87680054
lfemur  -24.87849617 7.121029854 -5.053750515
ltibia  -1.491570742e-006 -8.364404493e-007 63.29419708
lfoot  5.521815751e-007 -3.907489777 -8.182080269
ltoes  -4.250644065 -19.5611806 -102.515957
rfemur  -21.75089836 10.61950016 0.5539844632
rtibia  -8.727266732e-007 2.533748784e-007 60.66669464
rfoot  -2.316020982e-006 -6.960166454 -5.731749058
rtoes  5.373923086 19.29304026 -105.8922705
lowerback  12.36330032 2.620569944 -1.408820033
upperback  3.921849966 3.142839909 -0.7515410185
thorax  -2.84649992 1.508669972 -0.4444150031
rclavicle  0 -9.442270133e-015 7.951389973e-016
rhumerus  6.427540302 22.12829971 -76.59580231
rradius  -7.782816926e-012 0.001642658608 139.2310028
rwrist  0.002739921212 0.003270594636 -13.42399979
rthumb  -92.93752616 -24.25625642 -97.11982154
rhand  -7.920061211e-032 -33.2840004 9.303460121
rfingers  -90 -7.125020027 -90
lclavicle  0 -9.442270133e-015 7.951389973e-016
lhumerus  7.750400543 2.340529919 63.40570068
lradius  1.032090038e-011 0.005718162749 145.7059937
lwrist  1.816137865e-011 1.409039812e-011 6.211359978
lthumb  89.89689403 5.08795885 91.16245106
lhand  -1.496451383e-031 -27.76390076 20.11240005
lfingers  90 7.125020027 -90
lowerneck  -5.912040234 9.977560043 -3.878540039
upperneck  8.500189781 14.01620102 -3.417989969
head  3.79379034 6.620989323 0.236604318
188
root  17.22966592 39.71888925 -10.2279558 -12.5258007 -72.50150299 15.63660049
lfemur  -24.71699524 7.304570675 -5.310772896
ltibia  -1.491570742e-006 -8.364404493e-007 63.14509201
lfoot  5.521815751e-007 -4.410515308 -7.597700119
ltoes  -4.250644065 -19.5611806 -102.515957
rfemur  -23.4720974 10.72990036 -0.4887557626
rtibia  -8.727266732e-007 2.533748784e-007 62.23439407
rfoot  -2.316020982e-006 -5.209074497 -5.338179588
rtoes  5.373923086 19.29304026 -105.8922705
lowerback  12.67910004 2.823050022 -2.300450087
upperback  4.100409985 3.266599894 -1.106930017
thorax  -2.859879971 1.562940001 -0.3428789973
rclavicle  0 -9.442270133e-015 7.951389973e-016
rhumerus  6.794499874 22.35460091 -76.42009735
rradius  -7.782816926e-012 0.001642658608 139.0099945
rwrist  0.002739921212 0.003270594636 -13.21170044
rthumb  -92.93752616 -24.25625642 -97.11982154
rhand  -7.920061211e-032 -33.2840004 9.303460121
rfingers  -90 -7.125020027 -90
lclavicle  0 -9.442270133e-015 7.951389973e-016
lhumerus  8.812620163 3.916819811 62.71770096
lradius  1.032089952e-011 0.005718162749 145.1329956
lwrist  1.816137865e-011 1.409039812e-011 7.705480099
lthumb  89.89689403 5.08795885 91.16245106
lhand  -1.496451383e-031 -27.76390076 20.11240005
lfingers  90 7.125020027 -90
lowerneck  -6.111579895 9.933130264 -3.475150108
upperneck  8.611399651 13.99810123 -4.05614996
head  3.960319996 6.589519978 -0.009806103073
189
root  17.24266593 39.76488789 -10.20797745 -15.51710129 -72.81330109 18.34129906
lfemur  -24.32429695 7.394300461 -5.496882915
ltibia  -1.491570742e-006 -8.364404493e-007 62.86989212
lfoot  5.521815751e-007 -5.034526348 -6.625919819
ltoes  -4.250644065 -19.5611806 -102.515957
rfemur  -24.48529816 11.10200024 -1.396532178
rtibia  -8.727266732e-007 2.533748784e-007 63.17759323
rfoot  -2.316020982e-006 -4.822576046 -5.508979321
rtoes  5.373923086 19.29304026 -105.8922705
lowerback  13.10599995 3.011460066 -3.135129929
upperback  4.297210217 3.365170002 -1.463070035
thorax  -2.911250114 1.602489948 -0.2772080004
rclavicle  0 -9.442270133e-015 7.951389973e-016
rhumerus  7.10449934 22.50559998 -76.26899719
rradius  -7.782816926e-012 0.001642658608 138.8119965
rwrist  0.002739921212 0.003270594636 -13.06879997
rthumb  -92.93752616 -24.25625642 -97.11982154
rhand  -7.920061211e-032 -33.2840004 9.303460121
rfingers  -90 -7.125020027 -90
lclavicle  0 -9.442270133e-015 7.951389973e-016
lhumerus  10.06620121 5.965670109 61.72320175
lradius  1.032090038e-011 0.005718162749 144.3789978
lwrist  1.816137865e-011 1.409039812e-011 10.13220024
lthumb  89.89689403 5.08795885 91.16245106
lhand  -1.496451383e-031 -27.76390076 20.11240005
lfingers  90 7.125020027 -90
lowerneck  -5.977290154 9.926099777 -3.378940105
upperneck  8.514430046 13.98579979 -4.283909798
head  3.927469969 6.580619812 -0.1082690284
190
root  17.2419105 39.78977654 -10.18162224 -18.66660118 -72.79440308 21.06940269
lfemur  -23.8382988 7.355569839 -5.76540184
ltibia  -1.491570742e-006 -8.364404493e-007 62.49569702
lfoot  5.521815751e-007 -5.768867016 -5.157999992
ltoes  -4.250644065 -19.5611806 -102.515957
rfemur  -24.82879829 11.53050041 -2.327420473
rtibia  -8.727266732e-007 2.533748784e-007 63.4651947
rfoot  -2.316020982e-006 -5.228457451 -6.480478764
rtoes  5.373923086 19.29304026 -105.8922705
lowerback  13.68360043 3.101000071 -3.838540077
upperback  4.432370186 3.32517004 -1.946320057
thorax  -3.08987999 1.574329972 -0.4068489969
rclavicle  0 -9.442270133e-015 7.951389973e-016
rhumerus  7.209199905 22.60910034 -76.32099915
rradius  -7.782816926e-012 0.001642658608 138.5919952
rwrist  0.002739921212 0.003270594636 -12.77019978
rthumb  -92.93752616 -24.25625642 -97.11982154
rhand  -7.920061211e-032 -33.2840004 9.303460121
rfingers  -90 -7.125020027 -90
lclavicle  0 -9.442270133e-015 7.951389973e-016
lhumerus  11.18450069 7.617450237 60.80059814
lradius  1.032090125e-011 0.005718162749 143.503006
lwrist  1.816137865e-011 1.409039812e-011 12.74580002
lthumb  89.89689403 5.08795885 91.16245106
lhand  -1.496451383e-031 -27.76390076 20.11240005
lfingers  90 7.125020027 -90
lowerneck  -5.52820015 9.982740402 -3.630160093
upperneck  8.287679672 14.0085001 -3.950040102
head  3.710809946 6.617090225 0.0002705571242
